<svg xmlns="http://www.w3.org/2000/svg" xmlns:xlink="http://www.w3.org/1999/xlink" version="1.1" x="0px" y="0px" viewBox="0 0 66 82.5" style="enable-background:new 0 0 66 66;" xml:space="preserve"><g><path d="M39.8,6.5c-1-1-2.4-1.5-3.8-1.5H21c-5.2,0-9.5,4.3-9.5,9.5v37c0,5.2,4.3,9.5,9.5,9.5h24c5.2,0,9.5-4.3,9.5-9.5V22.7   c0-1.5-0.6-3-1.7-4L39.8,6.5z M51.5,51.5c0,3.6-2.9,6.5-6.5,6.5H21c-3.6,0-6.5-2.9-6.5-6.5v-37c0-3.6,2.9-6.5,6.5-6.5h15   c0,0,0.1,0,0.1,0v9c0,3,2.5,5.5,5.5,5.5h9.9c0,0.1,0,0.2,0,0.2V51.5z"/><path d="M21.5,39.9c-0.7,0-1.3,0.6-1.3,1.3c0,0.7,0.6,1.3,1.3,1.3c0.7,0,1.3-0.6,1.3-1.3C22.8,40.5,22.2,39.9,21.5,39.9z"/><path d="M25.9,37.6c0-0.3,0.3-0.5,0.8-0.5c0.8,0,1.6,0.4,2,0.7l0.8-1.5c-0.7-0.5-1.7-0.9-2.8-0.9c-1.9,0-2.9,1-2.9,2.2   c0,2.7,3.9,1.9,3.9,2.7c0,0.3-0.3,0.5-0.9,0.5c-0.8,0-1.9-0.5-2.4-0.9l-0.9,1.5c0.7,0.6,2,1.1,3.2,1.1c1.9,0,3.1-0.9,3.1-2.2   C29.8,37.5,25.9,38.3,25.9,37.6z"/><polygon points="33.8,39.9 32.3,35.6 30,35.6 32.6,42.4 34.9,42.4 37.6,35.6 35.3,35.6  "/><path d="M42.8,36.4c-0.5-0.7-1.2-1-2-1c-1.7,0-3,1.2-3,3.4c0,2.3,1.3,3.4,3,3.4c0.8,0,1.4-0.3,2-1v0.5c0,1.3-1,1.6-1.7,1.6   c-0.8,0-1.5-0.2-2.1-0.8l-0.9,1.5c0.9,0.7,1.8,1,3,1c1.7,0,3.9-0.6,3.9-3.3v-6.2h-2.2V36.4z M42.8,39.7c-0.3,0.4-0.8,0.6-1.3,0.6   c-0.9,0-1.5-0.5-1.5-1.5c0-1,0.6-1.5,1.5-1.5c0.4,0,1,0.2,1.3,0.6V39.7z"/></g><text x="0" y="81" fill="#000000" font-size="5px" font-weight="bold" font-family="'Helvetica Neue', Helvetica, Arial-Unicode, Arial, Sans-serif">Created by Kiran Shastry</text><text x="0" y="86" fill="#000000" font-size="5px" font-weight="bold" font-family="'Helvetica Neue', Helvetica, Arial-Unicode, Arial, Sans-serif">from the Noun Project</text></svg>